<svg width="52" height="62" viewBox="0 0 52 62" fill="none" xmlns="http://www.w3.org/2000/svg">
<path d="M0 34.8541H17.427C26.8965 34.8541 34.573 42.5306 34.573 52.0001H17.1459C7.67649 52.0001 0 44.3236 0 34.8541Z" fill="white"/>
<path d="M17.427 0H34.854C44.3235 0 52 7.6765 52 17.1459H34.5729C25.1035 17.1459 17.427 9.46944 17.427 0Z" fill="white"/>
<path d="M0 34.5731L0 17.146C0 7.6766 7.6765 0.000118256 17.1459 0.000118256L17.1459 17.4272C17.1459 26.8966 9.46944 34.5731 0 34.5731Z" fill="white"/>
<path d="M34.573 52V34.5729C34.573 24.9483 42.3753 17.1459 52 17.1459V34.5729C52 44.1976 44.1977 52 34.573 52Z" fill="white"/>
<path d="M52 61.8378V34.854H34.8541V44.6919C34.8541 54.1613 42.5306 61.8378 52 61.8378Z" fill="white"/>
</svg>
