<svg width="125" height="28" viewBox="0 0 125 28" fill="none" xmlns="http://www.w3.org/2000/svg">
<g clip-path="url(#clip0_6_720)">
<path d="M50.1457 16.047L47.9943 10.2209C47.8994 9.96898 47.5514 9.96898 47.4881 10.2209L45.3051 16.047C45.2418 16.2359 45.3684 16.4249 45.5582 16.4249H49.9242C50.0824 16.4249 50.2406 16.2359 50.1457 16.047ZM51.1581 19.3222H44.2927C44.1662 19.3222 44.0713 19.3852 44.0396 19.5111L42.6792 23.1327C42.6476 23.2272 42.521 23.3217 42.4261 23.3217H39.4522C39.2624 23.3217 39.1358 23.1327 39.1991 22.9438L46.0644 5.90648C46.0961 5.81201 46.2226 5.74902 46.3175 5.74902H49.1649C49.2915 5.74902 49.3864 5.81201 49.418 5.90648L56.2834 22.9438C56.3466 23.1327 56.2201 23.3217 56.0303 23.3217H53.0563C52.9298 23.3217 52.8349 23.2587 52.8032 23.1327L51.4428 19.5111C51.3795 19.4167 51.2846 19.3222 51.1581 19.3222ZM57.6754 11.7326H60.2381C60.3962 11.7326 60.5228 11.8585 60.5228 12.016V23.0698C60.5228 23.2272 60.3962 23.3532 60.2381 23.3532H57.6754C57.5172 23.3532 57.3907 23.2272 57.3907 23.0698V11.9845C57.3907 11.8585 57.5172 11.7326 57.6754 11.7326ZM69.7926 14.4094C69.7926 14.5669 69.666 14.6928 69.5079 14.6928H69.4446C68.1791 14.6928 67.2616 15.0077 66.6605 15.6061C66.0594 16.2044 65.7746 17.2122 65.7746 18.5979V23.0698C65.7746 23.2272 65.6481 23.3532 65.4899 23.3532H62.9589C62.8007 23.3532 62.6741 23.2272 62.6741 23.0698V11.9845C62.6741 11.827 62.8007 11.7011 62.9589 11.7011H65.4582C65.6164 11.7011 65.743 11.827 65.743 11.9845V14.1575H65.8063C66.1226 13.2442 66.5972 12.5513 67.23 12.079C67.8943 11.6066 68.6853 11.3546 69.666 11.3546H69.7926V14.4094ZM76.7845 14.3149C76.6263 14.3149 76.4998 14.4409 76.4998 14.5983V19.1962C76.4998 19.6686 76.5947 20.015 76.7845 20.204C76.9743 20.3929 77.2907 20.5189 77.7336 20.5189H77.9867C78.1449 20.5189 78.2715 20.6449 78.2715 20.8023V23.1013C78.2715 23.2587 78.1449 23.3847 77.9867 23.3847H76.911C75.7721 23.3847 74.9179 23.1012 74.3168 22.5344C73.7156 21.9675 73.3993 21.0857 73.3993 19.952V14.5983C73.3993 14.4409 73.2727 14.3149 73.1145 14.3149H71.5327C71.3745 14.3149 71.2479 14.1889 71.2479 14.0315V11.9845C71.2479 11.827 71.3745 11.7011 71.5327 11.7011H73.1145C73.2727 11.7011 73.3993 11.5751 73.3993 11.4176V7.32364C73.3993 7.16617 73.5258 7.04021 73.684 7.04021H76.2467C76.4048 7.04021 76.5314 7.16617 76.5314 7.32364V11.4176C76.5314 11.5751 76.6579 11.7011 76.8161 11.7011H78.6511C78.8093 11.7011 78.9358 11.827 78.9358 11.9845V14.0315C78.9358 14.1889 78.8093 14.3149 78.6511 14.3149H76.7845ZM88.4588 19.889C89.0282 19.2907 89.313 18.5034 89.313 17.5271C89.313 16.5509 89.0282 15.7636 88.4588 15.1652C87.8893 14.5669 87.13 14.2519 86.1808 14.2519C85.2317 14.2519 84.4724 14.5669 83.903 15.1652C83.3335 15.7636 83.0487 16.5509 83.0487 17.5271C83.0487 18.5034 83.3335 19.2907 83.903 19.889C84.4724 20.4874 85.2317 20.8023 86.1808 20.8023C87.0983 20.8023 87.8576 20.4874 88.4588 19.889ZM82.5742 22.9753C81.72 22.5029 81.0556 21.7786 80.5494 20.8653C80.0432 19.952 79.7901 18.8183 79.7901 17.5271C79.7901 16.2359 80.0432 15.1337 80.5494 14.1889C81.0556 13.2757 81.72 12.5513 82.5742 12.079C83.4284 11.6066 84.3775 11.3546 85.3899 11.3546C86.3074 11.3546 87.0667 11.5436 87.7311 11.89C88.3638 12.2364 88.9017 12.7403 89.2813 13.3701H89.3446V12.016C89.3446 11.8585 89.4712 11.7326 89.6293 11.7326H92.1603C92.3185 11.7326 92.4451 11.8585 92.4451 12.016V23.0698C92.4451 23.2272 92.3185 23.3532 92.1603 23.3532H89.6293C89.4712 23.3532 89.3446 23.2272 89.3446 23.0698V21.7156H89.2813C88.9017 22.3454 88.3638 22.8493 87.7311 23.1957C87.0983 23.5421 86.3074 23.7311 85.3899 23.7311C84.3459 23.6996 83.4284 23.4477 82.5742 22.9753ZM102.885 19.889C103.455 19.2907 103.74 18.5034 103.74 17.5271C103.74 16.5509 103.455 15.7636 102.885 15.1652C102.316 14.5669 101.557 14.2519 100.608 14.2519C99.6585 14.2519 98.8991 14.5669 98.3297 15.1652C97.7602 15.7636 97.4438 16.5509 97.4438 17.5271C97.4438 18.5034 97.7286 19.2907 98.3297 19.889C98.8991 20.4874 99.6585 20.8023 100.608 20.8023C101.557 20.8023 102.316 20.4874 102.885 19.889ZM99.0573 23.1642C98.4246 22.8178 97.8867 22.3139 97.5071 21.6841H97.4438V23.0383C97.4438 23.1957 97.3173 23.3217 97.1591 23.3217H94.5964C94.4383 23.3217 94.3117 23.1957 94.3117 23.0383V6.03245C94.3117 5.87499 94.4383 5.74902 94.5964 5.74902H97.1591C97.3173 5.74902 97.4438 5.87499 97.4438 6.03245V13.3701H97.5071C97.8867 12.7403 98.4246 12.2364 99.0573 11.89C99.6901 11.5436 100.481 11.3546 101.399 11.3546C102.411 11.3546 103.36 11.6066 104.214 12.079C105.068 12.5513 105.733 13.2757 106.239 14.1889C106.745 15.1022 106.998 16.2359 106.998 17.5271C106.998 18.8183 106.745 19.9205 106.239 20.8653C105.733 21.7786 105.068 22.5029 104.214 22.9753C103.36 23.4477 102.411 23.6996 101.399 23.6996C100.481 23.6996 99.7217 23.5106 99.0573 23.1642ZM111.301 23.3217H108.738C108.58 23.3217 108.454 23.1957 108.454 23.0383V6.03245C108.454 5.87499 108.58 5.74902 108.738 5.74902H111.301C111.459 5.74902 111.586 5.87499 111.586 6.03245V23.0698C111.554 23.1957 111.459 23.3217 111.301 23.3217ZM117.312 14.4094C116.901 14.7243 116.616 15.1967 116.458 15.8265C116.426 15.984 116.553 16.173 116.743 16.173H121.583C121.741 16.173 121.9 16.0155 121.868 15.858C121.773 15.2597 121.52 14.8188 121.109 14.4409C120.634 14.0315 120.001 13.811 119.242 13.811C118.451 13.8425 117.818 14.0315 117.312 14.4094ZM123.513 12.9607C124.494 14.0315 125 15.5746 125 17.5271V17.842C125 17.9995 124.874 18.1255 124.715 18.1255H116.616C116.458 18.1255 116.3 18.2829 116.331 18.4404C116.458 19.1647 116.774 19.7631 117.312 20.1725C117.913 20.6763 118.673 20.9283 119.558 20.9283C120.729 20.9283 121.805 20.4874 122.817 19.5741C122.944 19.4482 123.134 19.4796 123.228 19.6371L124.462 21.4007C124.557 21.5266 124.526 21.6841 124.431 21.7786C123.83 22.3139 123.165 22.7548 122.406 23.1013C121.583 23.4792 120.634 23.6996 119.558 23.6996C118.293 23.6996 117.186 23.4477 116.268 22.9438C115.319 22.4399 114.591 21.7156 114.085 20.7708C113.579 19.8575 113.294 18.7553 113.294 17.5586C113.294 16.3304 113.547 15.2597 114.054 14.3149C114.56 13.3701 115.256 12.6458 116.173 12.1419C117.091 11.6381 118.135 11.3546 119.337 11.3546C121.14 11.3546 122.532 11.89 123.513 12.9607ZM60.8392 7.63856C60.8392 8.6778 59.985 9.52809 58.9409 9.52809C57.8969 9.52809 57.0427 8.6778 57.0427 7.63856C57.0427 6.59931 57.8969 5.74902 58.9409 5.74902C59.985 5.74902 60.8392 6.59931 60.8392 7.63856Z" fill="#777777"/>
<path d="M14.5217 0.804727L2.40454 5.7805C1.74015 6.06393 1.74015 7.0087 2.40454 7.29213L14.585 12.1104C15.6607 12.5198 16.8313 12.5198 17.9069 12.1104L30.0874 7.29213C30.7518 7.0087 30.7834 6.06393 30.0874 5.7805L17.9702 0.804727C16.8629 0.332344 15.629 0.332344 14.5217 0.804727Z" fill="#777777"/>
<path d="M17.3374 14.7244V26.7229C17.3374 27.2898 17.9069 27.6992 18.4447 27.4788L32.0172 22.251C32.3336 22.1251 32.5234 21.8416 32.5234 21.4952V9.49668C32.5234 8.92982 31.954 8.52042 31.4161 8.74086L17.8436 13.9686C17.5272 14.0945 17.3374 14.378 17.3374 14.7244Z" fill="#777777"/>
<path d="M0 9.52804V20.8023C0 21.4006 0.696026 21.7785 1.23386 21.5266L9.71273 17.4641L10.124 17.2751L0.2531 8.99268C0.12655 9.11864 0 9.3076 0 9.52804Z" fill="#777777"/>
<path d="M14.1102 13.8742L1.20206 8.77246C0.948956 8.67799 0.664218 8.70948 0.474393 8.83545C0.411117 8.86694 0.316205 8.92992 0.25293 8.99291L10.1238 17.2754L14.1418 15.3543C14.8062 15.0394 14.7429 14.1261 14.1102 13.8742Z" fill="#777777"/>
</g>
<defs>
<clipPath id="clip0_6_720">
<rect width="125" height="27.0833" fill="white" transform="translate(0 0.458252)"/>
</clipPath>
</defs>
</svg>
