<svg width="106" height="24" viewBox="0 0 106 24" fill="none" xmlns="http://www.w3.org/2000/svg">
    <g id="LOGO">
    <path id="Vector" d="M23.2074 9.63529L23.1756 9.55055L19.9635 1.18279C19.8985 1.01848 19.7828 0.879105 19.6332 0.784827C19.5216 0.713461 19.3948 0.669206 19.2629 0.655607C19.1311 0.642008 18.9979 0.659444 18.874 0.706517C18.7501 0.75359 18.639 0.828992 18.5496 0.926677C18.4601 1.02436 18.3948 1.14162 18.359 1.26904L16.1908 7.89818H7.41048L5.24229 1.26904C5.20612 1.14181 5.14069 1.02477 5.05121 0.927275C4.96172 0.829776 4.85066 0.754509 4.72688 0.707474C4.60311 0.660439 4.47004 0.642939 4.33829 0.656369C4.20654 0.669799 4.07976 0.713787 3.96805 0.784827C3.81845 0.879105 3.70276 1.01848 3.63775 1.18279L0.427141 9.55206L0.393807 9.63529C-0.068426 10.8417 -0.125371 12.1656 0.231555 13.4072C0.588482 14.6488 1.33993 15.7408 2.3726 16.5186L2.38472 16.5277L2.41199 16.5489L7.29835 20.2062L9.7226 22.0356L11.1953 23.1478C11.3681 23.2781 11.5788 23.3487 11.7953 23.3487C12.0119 23.3487 12.2225 23.2781 12.3953 23.1478L13.8681 22.0356L16.2923 20.2062L21.2135 16.5277L21.2271 16.5171C22.2597 15.7396 23.0113 14.6479 23.3685 13.4066C23.7257 12.1653 23.6691 10.8417 23.2074 9.63529Z" fill="#777777"/>
    <path id="Vector_2" d="M42.4377 9.20243H45.8892C45.3135 5.53756 42.1362 2.98486 38.0014 2.98486C33.1089 2.98486 29.4377 6.5771 29.4377 12.5934C29.4377 18.5023 32.9438 22.1672 38.1014 22.1672C42.7302 22.1672 46.0438 19.1938 46.0438 14.3805V12.138H38.4574V14.7814H42.7665C42.712 17.4446 40.9317 19.1303 38.1196 19.1303C34.9892 19.1303 32.8438 16.7879 32.8438 12.5571C32.8438 8.35355 35.0256 6.02026 38.0468 6.02026C40.3014 6.02026 41.8438 7.22322 42.4377 9.20243Z" fill="#777777"/>
    <path id="Vector_3" d="M48.3256 21.9114H51.6301V7.91468H48.3256V21.9114ZM49.9922 5.69034C51.0422 5.69034 51.8998 4.88685 51.8998 3.9033C51.8998 2.91974 51.0422 2.10718 49.9922 2.10718C48.9422 2.10718 48.0756 2.90915 48.0756 3.9033C48.0756 4.89744 48.9271 5.69034 49.9862 5.69034H49.9922Z" fill="#777777"/>
    <path id="Vector_4" d="M61.5255 7.91497H58.7588V4.55273H55.4543V7.91497H53.4649V10.4677H55.4543V18.2544C55.4361 20.8888 57.3543 22.1886 59.8361 22.1114C60.4972 22.0983 61.1528 21.9876 61.7815 21.7831L61.2239 19.2016C60.9081 19.2835 60.5835 19.3266 60.2573 19.3302C59.4255 19.3302 58.7588 19.0382 58.7588 17.7066V10.4601H61.5255V7.91497Z" fill="#777777"/>
    <path id="Vector_5" d="M64.0833 21.9116H75.7045V19.076H67.4712V3.23926H64.0833V21.9116Z" fill="#777777"/>
    <path id="Vector_6" d="M82.0347 22.1944C84.2347 22.1944 85.5483 21.1639 86.1514 19.9882H86.2604V21.9114H89.4423V12.5389C89.4423 8.83776 86.421 7.72559 83.7453 7.72559C80.7968 7.72559 78.5332 9.03749 77.8029 11.5902L80.8892 12.029C81.2165 11.0712 82.1483 10.251 83.768 10.251C85.3029 10.251 86.1423 11.0349 86.1423 12.4118V12.4663C86.1423 13.4135 85.1468 13.4605 82.6726 13.7237C79.9529 14.0158 77.3513 14.8268 77.3513 17.9818C77.3423 20.7357 79.3589 22.1944 82.0347 22.1944ZM83.121 19.7733C81.7423 19.7733 80.7559 19.1439 80.7559 17.9318C80.7559 16.6638 81.8604 16.1357 83.3317 15.9254C84.1998 15.8074 85.9347 15.588 86.362 15.243V16.8923C86.3711 18.4463 85.1104 19.7688 83.121 19.7688V19.7733Z" fill="#777777"/>
    <path id="Vector_7" d="M91.8756 21.9116H95.1256V19.7054H95.3165C95.8378 20.7268 96.9241 22.1583 99.3347 22.1583C102.639 22.1583 105.114 19.5405 105.114 14.9284C105.114 10.2603 102.567 7.72577 99.3256 7.72577C96.8514 7.72577 95.8196 9.21169 95.3165 10.224H95.1772V3.23926H91.8756V21.9116ZM95.1165 14.9102C95.1165 12.1866 96.2847 10.4328 98.412 10.4328C100.612 10.4328 101.745 12.3016 101.745 14.9102C101.745 17.5189 100.595 19.4497 98.412 19.4497C96.3029 19.4497 95.1165 17.6264 95.1165 14.9102Z" fill="#777777"/>
    </g>
    </svg>
    