<svg width="78" height="26" viewBox="0 0 78 26" fill="none" xmlns="http://www.w3.org/2000/svg">
<g clip-path="url(#clip0_6_601)">
<path d="M7.83303 25.8249C3.62864 25.8249 0 23.352 0 18.334H4.16794C4.16794 20.6999 5.89249 21.9186 7.83303 21.9186C9.73708 21.9186 11.4266 20.8076 11.4266 18.0479V0H15.631V18.4054C15.6303 23.6745 11.9294 25.8249 7.83303 25.8249Z" fill="#777777"/>
<path d="M21.3961 5.27942C19.959 5.27942 18.7374 4.09652 18.7374 2.62742C18.7374 1.19401 19.959 0.0109863 21.3961 0.0109863C22.8696 0.0109863 24.019 1.19401 24.019 2.62742C24.019 4.09652 22.8689 5.27942 21.3961 5.27942ZM19.4198 7.65033H23.3724V25.709H19.4198V7.65033Z" fill="#777777"/>
<path d="M33.3654 25.7796C29.9157 25.7796 27.2212 23.8797 27.2212 19.8298V2.69678H31.1738V7.67908H35.522V11.1916H31.1738V19.1841C31.1738 21.4066 32.1438 22.195 34.1923 22.195C34.9469 22.195 35.7373 22.0873 36.3124 21.8725V25.3851C35.5213 25.6362 34.5871 25.7796 33.3654 25.7796Z" fill="#777777"/>
<path d="M37.8643 19.8298C37.8643 23.8797 40.5587 25.7796 44.0085 25.7796C45.2302 25.7796 46.1644 25.6362 46.9554 25.3851V21.8725C46.3804 22.0873 45.59 22.195 44.8354 22.195C42.7868 22.195 41.8169 21.4066 41.8169 19.1841V11.1916H46.9217V7.67908H41.8169V2.69678H37.8643V19.8298Z" fill="#777777"/>
<path d="M56.9168 7.36279C61.6241 7.36279 65.5767 10.4808 65.5767 16.2515C65.5767 16.646 65.5767 16.9685 65.541 17.5414H51.4192C51.5987 20.4804 53.9706 22.4161 56.9526 22.4161C59.4675 22.4161 61.157 21.2688 62.0912 19.692L65.1096 21.8424C63.4924 24.3874 60.6899 25.9999 56.9168 25.9999C51.455 25.9999 47.5388 22.1292 47.5388 16.681C47.5381 11.4132 51.455 7.36279 56.9168 7.36279ZM51.5987 14.6747H61.5876C61.1563 12.094 59.0727 10.6962 56.7724 10.6962C54.4721 10.6962 52.1373 12.0226 51.5987 14.6747Z" fill="#777777"/>
<path d="M67.9548 7.74794H71.9074V10.938C72.5898 8.89524 74.6026 7.56885 76.6505 7.56885C77.1533 7.56885 77.6568 7.60454 78.1954 7.71226V11.7628C77.513 11.5479 76.938 11.4402 76.2191 11.4402C73.9552 11.4402 71.9074 13.3396 71.9074 16.9241V25.6694H67.9548V7.74794Z" fill="#777777"/>
</g>
<defs>
<clipPath id="clip0_6_601">
<rect width="78" height="26" fill="white"/>
</clipPath>
</defs>
</svg>
