<svg width="100" height="22" viewBox="0 0 100 22" fill="none" xmlns="http://www.w3.org/2000/svg">
<g clip-path="url(#clip0_6_622)">
<path fill-rule="evenodd" clip-rule="evenodd" d="M68.2189 0H72.1618V21.8308H68.2189V0ZM100 9.20615V5.82154H95.9551V1.42154H92.0122V17.4985C92.0122 18.9877 92.3861 20.1046 93.1339 20.8492C93.8817 21.5938 95.0034 21.9662 96.533 21.9662H100V18.5815H97.4507C96.9069 18.5815 96.499 18.4462 96.261 18.2092C96.0571 18.0062 95.9211 17.4308 95.9211 16.8215V9.20615H100ZM41.5364 17.5662L45.5812 5.78769H49.6941L43.8477 21.7969H39.191L33.3447 5.82154H37.4575L41.5364 17.5662ZM85.622 13.8092C85.622 14.8246 85.4521 15.7046 85.1801 16.4154C84.8742 17.1262 84.4324 17.7015 83.8885 18.0738C83.3447 18.4462 82.6648 18.6154 81.8831 18.6154C80.7614 18.6154 79.9116 18.2431 79.3678 17.5323C78.8239 16.7877 78.518 15.7046 78.518 14.2492V5.78769H74.5751V14.6554C74.5751 16.0431 74.7451 17.2277 75.085 18.1415C75.4249 19.0892 75.9007 19.8338 76.4786 20.4092C77.0564 20.9846 77.7362 21.3908 78.518 21.6277C79.2658 21.8646 80.0816 22 80.9313 22C82.155 22 83.1747 21.7631 83.9565 21.3569C84.6703 20.9508 85.2481 20.4769 85.724 19.9692L86.0639 21.8308H89.4969V5.82154H85.554V13.8092H85.622ZM62.2026 6.63385C60.9789 5.95692 59.4833 5.61846 57.8518 5.61846C56.2203 5.61846 54.7587 5.95692 53.501 6.63385C52.2434 7.31077 51.2576 8.29231 50.5778 9.51077C49.898 10.7292 49.5581 12.1846 49.5581 13.8092C49.5581 15.4338 49.898 16.8554 50.5778 18.0738C51.2576 19.2923 52.2434 20.2738 53.501 20.9508C54.7587 21.6277 56.2203 21.9662 57.8518 21.9662C59.5173 21.9662 60.9789 21.6277 62.2026 20.9508C63.4262 20.2738 64.412 19.2923 65.0918 18.0738C65.7716 16.8554 66.1115 15.4 66.1115 13.8092C66.1115 12.1846 65.7716 10.7292 65.0918 9.51077C64.446 8.29231 63.4602 7.34462 62.2026 6.63385ZM60.1292 18.0738C59.4833 18.48 58.7355 18.6831 57.8518 18.6831C56.968 18.6831 56.2203 18.48 55.5744 18.0738C54.9286 17.6677 54.4188 17.0923 54.0789 16.3477C53.739 15.6031 53.535 14.7569 53.535 13.8092C53.535 12.8277 53.705 11.9815 54.0789 11.2708C54.4188 10.56 54.9286 9.95077 55.5744 9.54462C56.2203 9.13846 56.968 8.90154 57.8518 8.90154C58.7355 8.90154 59.5173 9.10462 60.1292 9.54462C60.775 9.95077 61.2508 10.56 61.6247 11.2708C61.9646 11.9815 62.1686 12.8615 62.1686 13.8092C62.1686 14.7569 61.9986 15.6031 61.6247 16.3477C61.2848 17.0923 60.775 17.6677 60.1292 18.0738ZM4.07886 5.38154H0V21.7969H4.07886V5.38154ZM16.8933 6.32923C16.8933 2.84308 14.0381 0 10.537 0H0V3.52H10.0272C11.6247 3.52 12.9164 4.77231 12.9504 6.29538C12.9504 7.07385 12.6784 7.78462 12.1346 8.32615C11.5908 8.83385 10.877 9.13846 10.1292 9.13846H6.22026C6.0843 9.13846 5.98233 9.24 5.98233 9.37539V12.5231C5.98233 12.5908 5.98233 12.6246 6.01632 12.6585L12.6445 21.7969H17.5051L10.843 12.6246C14.174 12.4892 16.8933 9.68 16.8933 6.32923ZM29.4358 6.56615C28.2461 5.95692 26.8525 5.61846 25.2889 5.61846C23.7254 5.61846 22.2978 5.95692 21.1081 6.63385C19.8844 7.31077 18.9667 8.29231 18.2869 9.51077C17.6071 10.7292 17.3012 12.1846 17.3012 13.8431C17.3012 15.4677 17.6411 16.8892 18.3209 18.1077C19.0007 19.3262 19.9864 20.3077 21.2101 20.9508C22.4677 21.6277 23.9633 21.9662 25.6628 21.9662C27.0224 21.9662 28.2121 21.7292 29.2658 21.2215C30.3195 20.7138 31.1693 20.0369 31.7811 19.1908C32.3929 18.3785 32.8008 17.4985 33.0048 16.5169L33.0387 16.4154H29.0619L29.0279 16.4831C28.8239 17.2277 28.3821 17.8031 27.8042 18.2092C27.1584 18.6492 26.3426 18.8862 25.4249 18.8862C24.6431 18.8862 23.9293 18.7169 23.3175 18.3785C22.7056 18.04 22.2298 17.5662 21.8899 16.9908C21.55 16.3815 21.38 15.6708 21.312 14.8585V14.7231H33.1067V14.6554C33.1407 14.4185 33.1747 14.1815 33.1747 13.9785C33.1747 13.7415 33.1747 13.5385 33.1747 13.3015C33.1407 11.7446 32.8008 10.3908 32.155 9.24C31.5432 8.05538 30.5914 7.17538 29.4358 6.56615ZM28.0082 9.57846C28.688 10.1538 29.0959 10.9323 29.2658 11.9477H21.482C21.584 11.3046 21.7879 10.7292 22.1278 10.2554C22.5017 9.74769 22.9436 9.37538 23.5214 9.10462C24.0653 8.83385 24.6771 8.69846 25.3229 8.69846C26.4106 8.69846 27.2944 9.00308 28.0082 9.57846Z" fill="#777777"/>
</g>
<defs>
<clipPath id="clip0_6_622">
<rect width="100" height="22" fill="white"/>
</clipPath>
</defs>
</svg>
