<svg width="105" height="24" viewBox="0 0 105 24" fill="none" xmlns="http://www.w3.org/2000/svg">
<g clip-path="url(#clip0_6_699)">
<path d="M52.6183 6.0501C48.5489 6.0501 45.6151 8.7157 45.6151 12.7617C45.6151 16.8077 48.9274 19.4733 52.9968 19.4733C55.4574 19.4733 57.6341 18.4737 58.959 16.8553L56.1199 15.1893C55.3628 15.9985 54.2271 16.4745 52.9495 16.4745C51.1987 16.4745 49.6845 15.5225 49.1167 14.0469H59.4795C59.5741 13.6185 59.6215 13.1901 59.6215 12.7617C59.6215 8.7157 56.6877 6.0501 52.6183 6.0501ZM49.1167 11.4289C49.5899 9.9533 50.8202 9.0013 52.6183 9.0013C54.3691 9.0013 55.6467 9.9533 56.1199 11.4289H49.1167ZM48.265 1.9565L38.0442 19.8065L27.776 1.9565H31.6088L37.9968 13.0949L44.4322 1.9565H48.265ZM13.6751 0.100098L27.3502 23.9001H0L13.6751 0.100098ZM74.4795 12.7617C74.4795 14.9989 75.9464 16.4745 78.1703 16.4745C79.6845 16.4745 80.8202 15.7605 81.4353 14.6657L84.2745 16.3317C83.0915 18.2833 80.9148 19.4733 78.1703 19.4733C74.1009 19.4733 71.1672 16.8077 71.1672 12.7617C71.1672 8.7157 74.1009 6.0501 78.1703 6.0501C80.8675 6.0501 83.0915 7.2401 84.2745 9.1917L81.4353 10.8577C80.8675 9.7153 79.6845 9.0489 78.1703 9.0489C75.9464 9.0489 74.4795 10.5245 74.4795 12.7617ZM105 1.9565V19.0449H101.688V1.9565H105ZM92.4133 6.0501C88.3438 6.0501 85.4101 8.7157 85.4101 12.7617C85.4101 16.8077 88.7224 19.4733 92.7918 19.4733C95.2524 19.4733 97.429 18.4737 98.7539 16.8553L95.9148 15.1893C95.1577 15.9985 94.0221 16.4745 92.7445 16.4745C90.9937 16.4745 89.4795 15.5225 88.9117 14.0469H99.2745C99.3691 13.6185 99.4164 13.1901 99.4164 12.7617C99.4637 8.7157 96.4827 6.0501 92.4133 6.0501ZM88.9117 11.4289C89.3849 9.9533 90.6151 9.0013 92.4133 9.0013C94.2114 9.0013 95.4416 9.9533 95.9148 11.4289H88.9117ZM70.0789 6.4309V10.0485C69.7003 9.9533 69.3218 9.8581 68.8959 9.8581C66.7666 9.8581 65.205 11.3337 65.205 13.5709V19.0925H61.8927V6.4309H65.205V9.8581C65.205 7.9541 67.3817 6.4309 70.0789 6.4309Z" fill="#777777"/>
</g>
<defs>
<clipPath id="clip0_6_699">
<rect width="105" height="23.8" fill="white" transform="translate(0 0.100098)"/>
</clipPath>
</defs>
</svg>
