<svg width="88" height="20" viewBox="0 0 88 20" fill="none" xmlns="http://www.w3.org/2000/svg">
<g clip-path="url(#clip0_6_634)">
<path d="M18.4535 19.6664H2.80647C1.76846 19.6664 0.807339 19.1294 0.307558 18.2088C-0.230668 17.1347 -0.0384448 15.8689 0.807339 15.0633L11.6872 4.20774H3.88292C1.73001 4.20774 0 2.44323 0 0.333483H14.4168C15.4548 0.333483 16.4159 0.870509 16.9157 1.79112C17.4539 2.86518 17.2617 4.13102 16.4159 4.93656L5.53604 15.7921H14.5706C16.7235 15.7921 18.4535 17.5567 18.4535 19.6664ZM80.4264 0.0266113C78.1966 0.0266113 76.159 0.985586 74.775 2.5583C73.391 1.02394 71.3534 0.0266113 69.1236 0.0266113C64.9716 0.0266113 61.55 3.55564 61.55 7.69841V19.6664C63.7029 19.6664 65.4329 17.9403 65.4329 15.7921V7.66005C65.4329 5.66538 66.9707 3.97759 68.9699 3.90087C71.0843 3.82415 72.8143 5.51194 72.8143 7.58333V15.7921C72.8143 17.9403 74.5443 19.6664 76.6973 19.6664V7.66005C76.6973 5.66538 78.235 3.97759 80.2342 3.90087C82.3486 3.82415 84.0786 5.51194 84.0786 7.58333V15.7921C84.0786 17.9403 85.8087 19.6664 87.9616 19.6664V7.69841C88 3.55564 84.5784 0.0266113 80.4264 0.0266113ZM38.0603 9.99994C38.0603 15.4853 33.5623 19.9733 28.0647 19.9733C22.5286 19.9733 18.069 15.4853 18.069 9.99994C18.069 4.51461 22.5671 0.0266113 28.0647 0.0266113C33.5623 0.0266113 38.0603 4.51461 38.0603 9.99994ZM34.1774 9.99994C34.1774 6.62435 31.4478 3.90087 28.0647 3.90087C24.6815 3.90087 21.9519 6.62435 21.9519 9.99994C21.9519 13.3755 24.6815 16.099 28.0647 16.099C31.4478 16.099 34.1774 13.3755 34.1774 9.99994ZM59.6278 9.99994C59.6278 15.4853 55.1298 19.9733 49.6322 19.9733C44.0961 19.9733 39.6365 15.4853 39.6365 9.99994C39.6365 4.51461 44.1346 0.0266113 49.6322 0.0266113C55.1298 0.0266113 59.6278 4.51461 59.6278 9.99994ZM55.7449 9.99994C55.7449 6.62435 53.0153 3.90087 49.6322 3.90087C46.249 3.90087 43.5194 6.62435 43.5194 9.99994C43.5194 13.3755 46.249 16.099 49.6322 16.099C53.0153 16.099 55.7449 13.3755 55.7449 9.99994Z" fill="#777777"/>
</g>
<defs>
<clipPath id="clip0_6_634">
<rect width="88" height="19.9467" fill="white" transform="translate(0 0.0266113)"/>
</clipPath>
</defs>
</svg>
