<svg width="31" height="36" viewBox="0 0 31 36" fill="none" xmlns="http://www.w3.org/2000/svg">
<style>
  path { fill: #111111; }
  @media (prefers-color-scheme: dark) {
    path { fill: #ffffff; }
  }
</style>
<path d="M0 20.291H10.1455C15.6583 20.291 20.1273 24.76 20.1273 30.2729H9.98184C4.46902 30.2729 0 25.8038 0 20.291Z"/>
<path d="M10.1455 0H20.2909C25.8038 0 30.2728 4.46902 30.2728 9.98184H20.1273C14.6145 9.98184 10.1455 5.51282 10.1455 0Z"/>
<path d="M0 20.1277L0 9.98221C0 4.46939 4.46902 0.000364304 9.98184 0.000364304L9.98184 10.1458C9.98184 15.6587 5.51282 20.1277 0 20.1277Z"/>
<path d="M20.1273 30.2727V20.1272C20.1273 14.524 24.6695 9.98175 30.2727 9.98175V20.1272C30.2727 25.7304 25.7305 30.2727 20.1273 30.2727Z"/>
<path d="M30.2728 36V20.2909H20.291V26.0182C20.291 31.531 24.76 36 30.2728 36Z"/>
</svg>
