<svg width="156" height="36" viewBox="0 0 156 36" fill="none" xmlns="http://www.w3.org/2000/svg">
<path d="M0 20.291H10.1455C15.6583 20.291 20.1273 24.76 20.1273 30.2729V30.2729H9.98184C4.46902 30.2729 0 25.8038 0 20.291V20.291Z" fill="#111111"/>
<path d="M10.1455 0H20.2909C25.8038 0 30.2728 4.46902 30.2728 9.98184V9.98184H20.1273C14.6145 9.98184 10.1455 5.51282 10.1455 0V0Z" fill="#111111"/>
<path d="M0 20.1277L0 9.98221C0 4.46939 4.46902 0.000364304 9.98184 0.000364304V0.000364304L9.98184 10.1458C9.98184 15.6587 5.51282 20.1277 0 20.1277V20.1277Z" fill="#111111"/>
<path d="M20.1273 30.2727V20.1272C20.1273 14.524 24.6695 9.98175 30.2727 9.98175V9.98175V20.1272C30.2727 25.7304 25.7305 30.2727 20.1273 30.2727V30.2727Z" fill="#111111"/>
<path d="M30.2728 36V20.2909H20.291V26.0182C20.291 31.531 24.76 36 30.2728 36V36Z" fill="#111111"/>
<path d="M155.485 5.3979V7.52859H148.037V5.3979H155.485ZM150.034 2.13086H152.689V15.0304C152.689 15.5453 152.766 15.9329 152.92 16.1934C153.074 16.4479 153.272 16.6225 153.515 16.7172C153.763 16.8059 154.032 16.8503 154.322 16.8503C154.536 16.8503 154.722 16.8355 154.882 16.8059C155.042 16.7763 155.166 16.7527 155.255 16.7349L155.734 18.9277C155.58 18.9869 155.361 19.0461 155.077 19.1053C154.793 19.1704 154.438 19.2059 154.012 19.2118C153.313 19.2237 152.662 19.0994 152.059 18.839C151.455 18.5785 150.967 18.1761 150.594 17.6316C150.221 17.0871 150.034 16.4035 150.034 15.5808V2.13086Z" fill="#111111"/>
<path d="M146.381 5.39773V7.52841H138.675V5.39773H146.381ZM140.788 19.0341V3.81747C140.788 2.9652 140.975 2.25793 141.347 1.69567C141.72 1.12749 142.215 0.704309 142.83 0.426137C143.446 0.142046 144.114 0 144.836 0C145.369 0 145.825 0.0443896 146.204 0.133169C146.582 0.216028 146.864 0.292969 147.047 0.363992L146.426 2.51243C146.301 2.47692 146.142 2.43549 145.946 2.38814C145.751 2.33487 145.514 2.30824 145.236 2.30824C144.591 2.30824 144.129 2.46804 143.851 2.78764C143.579 3.10725 143.443 3.56889 143.443 4.17259V19.0341H140.788Z" fill="#111111"/>
<path d="M130.572 19.3093C129.294 19.3093 128.178 19.0164 127.225 18.4304C126.272 17.8445 125.532 17.0248 125.006 15.9713C124.479 14.9178 124.215 13.6867 124.215 12.2781C124.215 10.8636 124.479 9.62658 125.006 8.56716C125.532 7.50774 126.272 6.68506 127.225 6.09912C128.178 5.51318 129.294 5.22021 130.572 5.22021C131.85 5.22021 132.966 5.51318 133.919 6.09912C134.872 6.68506 135.612 7.50774 136.138 8.56716C136.665 9.62658 136.929 10.8636 136.929 12.2781C136.929 13.6867 136.665 14.9178 136.138 15.9713C135.612 17.0248 134.872 17.8445 133.919 18.4304C132.966 19.0164 131.85 19.3093 130.572 19.3093ZM130.581 17.081C131.409 17.081 132.096 16.862 132.641 16.4241C133.185 15.9861 133.588 15.4031 133.848 14.6751C134.114 13.9471 134.247 13.1452 134.247 12.2692C134.247 11.3992 134.114 10.6002 133.848 9.8722C133.588 9.1383 133.185 8.5494 132.641 8.10551C132.096 7.66162 131.409 7.43967 130.581 7.43967C129.746 7.43967 129.054 7.66162 128.503 8.10551C127.959 8.5494 127.554 9.1383 127.287 9.8722C127.027 10.6002 126.897 11.3992 126.897 12.2692C126.897 13.1452 127.027 13.9471 127.287 14.6751C127.554 15.4031 127.959 15.9861 128.503 16.4241C129.054 16.862 129.746 17.081 130.581 17.081Z" fill="#111111"/>
<path d="M121.643 8.72696L119.237 9.1531C119.137 8.84533 118.977 8.55236 118.758 8.27419C118.545 7.99602 118.255 7.76815 117.888 7.5906C117.521 7.41304 117.062 7.32426 116.512 7.32426C115.76 7.32426 115.133 7.49294 114.63 7.8303C114.127 8.16174 113.875 8.59083 113.875 9.11759C113.875 9.57332 114.044 9.94027 114.381 10.2184C114.718 10.4966 115.263 10.7245 116.015 10.902L118.181 11.3992C119.435 11.6892 120.371 12.1361 120.986 12.7397C121.602 13.3434 121.909 14.1276 121.909 15.0924C121.909 15.9091 121.673 16.6371 121.199 17.2763C120.732 17.9096 120.078 18.4068 119.237 18.7678C118.403 19.1288 117.435 19.3093 116.334 19.3093C114.807 19.3093 113.561 18.9838 112.597 18.3328C111.632 17.6758 111.04 16.7437 110.821 15.5363L113.387 15.1456C113.547 15.8144 113.875 16.3205 114.372 16.6638C114.869 17.0011 115.517 17.1698 116.316 17.1698C117.186 17.1698 117.882 16.9893 118.403 16.6282C118.924 16.2613 119.184 15.8144 119.184 15.2877C119.184 14.8615 119.024 14.5035 118.705 14.2135C118.391 13.9235 117.909 13.7045 117.257 13.5565L114.949 13.0505C113.677 12.7605 112.736 12.2988 112.126 11.6655C111.522 11.0322 111.221 10.2303 111.221 9.25963C111.221 8.45471 111.445 7.7504 111.895 7.14671C112.345 6.54301 112.967 6.07249 113.76 5.73513C114.553 5.39185 115.461 5.22021 116.485 5.22021C117.959 5.22021 119.119 5.53982 119.965 6.17902C120.812 6.81231 121.371 7.66162 121.643 8.72696Z" fill="#111111"/>
<path d="M101.16 19.336C100.296 19.336 99.5144 19.1762 98.816 18.8566C98.1176 18.5311 97.5642 18.0605 97.1558 17.445C96.7533 16.8295 96.5521 16.0749 96.5521 15.1812C96.5521 14.4117 96.7001 13.7785 96.996 13.2813C97.2919 12.7841 97.6914 12.3906 98.1945 12.1005C98.6976 11.8105 99.2599 11.5915 99.8813 11.4436C100.503 11.2956 101.136 11.1832 101.781 11.1062C102.598 11.0115 103.261 10.9346 103.77 10.8754C104.279 10.8103 104.649 10.7067 104.88 10.5647C105.11 10.4226 105.226 10.1918 105.226 9.8722V9.81006C105.226 9.03473 105.007 8.43399 104.569 8.00786C104.137 7.58172 103.492 7.36865 102.633 7.36865C101.74 7.36865 101.035 7.56692 100.521 7.96347C100.012 8.35409 99.6594 8.78911 99.464 9.26851L96.9694 8.70033C97.2653 7.87173 97.6974 7.20293 98.2655 6.69394C98.8396 6.17902 99.4996 5.80615 100.245 5.57533C100.991 5.33859 101.775 5.22021 102.598 5.22021C103.142 5.22021 103.719 5.28532 104.329 5.41553C104.945 5.53982 105.519 5.77064 106.051 6.108C106.59 6.44536 107.031 6.92772 107.374 7.55509C107.717 8.17654 107.889 8.98442 107.889 9.97874V19.0341H105.297V17.1698H105.19C105.019 17.5131 104.761 17.8504 104.418 18.1819C104.075 18.5133 103.634 18.7885 103.095 19.0075C102.556 19.2265 101.911 19.336 101.16 19.336ZM101.737 17.2053C102.471 17.2053 103.098 17.0603 103.619 16.7703C104.146 16.4803 104.545 16.1015 104.817 15.6339C105.096 15.1604 105.235 14.6544 105.235 14.1158V12.358C105.14 12.4527 104.956 12.5415 104.684 12.6243C104.418 12.7013 104.113 12.7693 103.77 12.8285C103.427 12.8818 103.092 12.9321 102.767 12.9794C102.441 13.0209 102.169 13.0564 101.95 13.086C101.435 13.1511 100.964 13.2606 100.538 13.4145C100.118 13.5683 99.7807 13.7903 99.5262 14.0803C99.2776 14.3644 99.1533 14.7432 99.1533 15.2167C99.1533 15.8736 99.396 16.3708 99.8813 16.7081C100.367 17.0396 100.985 17.2053 101.737 17.2053Z" fill="#111111"/>
<path d="M87.7187 19.0342V5.39779H90.2844V7.56399H90.4264C90.675 6.83009 91.113 6.25303 91.7403 5.83281C92.3736 5.40667 93.0898 5.1936 93.8888 5.1936C94.0545 5.1936 94.2498 5.19952 94.4747 5.21136C94.7055 5.2232 94.886 5.23799 95.0163 5.25575V7.79481C94.9097 7.76522 94.7203 7.73267 94.4481 7.69715C94.1758 7.65572 93.9036 7.63501 93.6313 7.63501C93.0039 7.63501 92.4446 7.76818 91.9534 8.03451C91.4681 8.29493 91.0834 8.65892 90.7993 9.12649C90.5152 9.58813 90.3731 10.1149 90.3731 10.7067V19.0342H87.7187Z" fill="#111111"/>
<path d="M78.3992 19.3093C77.1207 19.3093 76.0051 19.0164 75.0522 18.4304C74.0993 17.8445 73.3595 17.0248 72.8327 15.9713C72.306 14.9178 72.0426 13.6867 72.0426 12.2781C72.0426 10.8636 72.306 9.62658 72.8327 8.56716C73.3595 7.50774 74.0993 6.68506 75.0522 6.09912C76.0051 5.51318 77.1207 5.22021 78.3992 5.22021C79.6776 5.22021 80.7932 5.51318 81.7461 6.09912C82.699 6.68506 83.4388 7.50774 83.9656 8.56716C84.4923 9.62658 84.7557 10.8636 84.7557 12.2781C84.7557 13.6867 84.4923 14.9178 83.9656 15.9713C83.4388 17.0248 82.699 17.8445 81.7461 18.4304C80.7932 19.0164 79.6776 19.3093 78.3992 19.3093ZM78.408 17.081C79.2366 17.081 79.9232 16.862 80.4677 16.4241C81.0122 15.9861 81.4147 15.4031 81.6751 14.6751C81.9414 13.9471 82.0746 13.1452 82.0746 12.2692C82.0746 11.3992 81.9414 10.6002 81.6751 9.8722C81.4147 9.1383 81.0122 8.5494 80.4677 8.10551C79.9232 7.66162 79.2366 7.43967 78.408 7.43967C77.5735 7.43967 76.881 7.66162 76.3306 8.10551C75.7861 8.5494 75.3807 9.1383 75.1143 9.8722C74.8539 10.6002 74.7237 11.3992 74.7237 12.2692C74.7237 13.1452 74.8539 13.9471 75.1143 14.6751C75.3807 15.4031 75.7861 15.9861 76.3306 16.4241C76.881 16.862 77.5735 17.081 78.408 17.081Z" fill="#111111"/>
<path d="M70.6244 5.39771L65.6794 19.0341H62.8385L57.8847 5.39771H60.7345L64.188 15.8913H64.33L67.7746 5.39771H70.6244Z" fill="#111111"/>
<path d="M44.9119 19.0341H42L48.543 0.852295H51.7124L58.2553 19.0341H55.3434L50.2031 4.15485H50.0611L44.9119 19.0341ZM45.4002 11.9141H54.8462V14.2223H45.4002V11.9141Z" fill="#111111"/>
<path d="M155.147 35.6559C154.914 35.6559 154.713 35.5722 154.546 35.4049C154.378 35.2375 154.295 35.037 154.295 34.8033C154.295 34.5696 154.378 34.3691 154.546 34.2017C154.713 34.0344 154.914 33.9507 155.147 33.9507C155.381 33.9507 155.582 34.0344 155.749 34.2017C155.916 34.3691 156 34.5696 156 34.8033C156 34.958 155.961 35.1001 155.882 35.2296C155.806 35.3591 155.703 35.4633 155.574 35.5422C155.447 35.618 155.305 35.6559 155.147 35.6559Z" fill="#111111" fill-opacity="0.7"/>
<path d="M152.517 29.9339L151.513 30.2181C151.45 30.0507 151.357 29.8881 151.234 29.7302C151.114 29.5692 150.949 29.4365 150.741 29.3323C150.533 29.2281 150.266 29.176 149.941 29.176C149.495 29.176 149.124 29.2786 148.827 29.4839C148.534 29.686 148.387 29.9434 148.387 30.256C148.387 30.5339 148.488 30.7533 148.69 30.9144C148.892 31.0754 149.208 31.2096 149.637 31.317L150.717 31.5823C151.368 31.7402 151.853 31.9817 152.172 32.307C152.49 32.6291 152.65 33.0443 152.65 33.5527C152.65 33.9696 152.53 34.3422 152.29 34.6706C152.053 34.999 151.722 35.258 151.295 35.4474C150.869 35.6369 150.373 35.7316 149.808 35.7316C149.066 35.7316 148.452 35.5706 147.965 35.2485C147.479 34.9264 147.171 34.4559 147.042 33.8369L148.103 33.5717C148.204 33.9633 148.395 34.2569 148.676 34.4527C148.96 34.6485 149.331 34.7464 149.789 34.7464C150.31 34.7464 150.724 34.6359 151.03 34.4148C151.339 34.1906 151.494 33.9222 151.494 33.6096C151.494 33.357 151.406 33.1454 151.229 32.9749C151.052 32.8012 150.781 32.6717 150.414 32.5865L149.202 32.3022C148.535 32.1444 148.046 31.8996 147.733 31.5681C147.424 31.2333 147.269 30.8149 147.269 30.3128C147.269 29.9023 147.384 29.5392 147.615 29.2234C147.848 28.9076 148.166 28.6597 148.567 28.4797C148.971 28.2997 149.429 28.2097 149.941 28.2097C150.661 28.2097 151.226 28.3676 151.636 28.6834C152.05 28.9992 152.344 29.416 152.517 29.9339Z" fill="#111111" fill-opacity="0.7"/>
<path d="M145.812 28.3044V29.2517H142.042V28.3044H145.812ZM143.141 26.5613H144.259V33.4958C144.259 33.8116 144.305 34.0485 144.396 34.2064C144.491 34.3611 144.611 34.4653 144.756 34.519C144.905 34.5695 145.061 34.5948 145.225 34.5948C145.348 34.5948 145.449 34.5885 145.528 34.5758C145.607 34.56 145.67 34.5474 145.718 34.5379L145.945 35.5421C145.869 35.5705 145.764 35.599 145.628 35.6274C145.492 35.659 145.32 35.6747 145.111 35.6747C144.796 35.6747 144.486 35.6068 144.183 35.4711C143.883 35.3353 143.634 35.1284 143.435 34.8506C143.239 34.5727 143.141 34.2221 143.141 33.799V26.5613Z" fill="#111111" fill-opacity="0.7"/>
<path d="M140.601 25.8792V35.58H139.483V25.8792H140.601Z" fill="#111111" fill-opacity="0.7"/>
<path d="M136.318 32.6054V28.3044H137.436V35.5801H136.318V34.3485H136.242C136.071 34.718 135.806 35.0322 135.446 35.2911C135.086 35.5469 134.631 35.6748 134.082 35.6748C133.627 35.6748 133.223 35.5753 132.869 35.3764C132.516 35.1743 132.238 34.8711 132.036 34.4669C131.834 34.0596 131.733 33.5464 131.733 32.9275V28.3044H132.85V32.8517C132.85 33.3822 132.999 33.8054 133.296 34.1211C133.596 34.4369 133.978 34.5948 134.442 34.5948C134.72 34.5948 135.002 34.5238 135.29 34.3817C135.58 34.2396 135.824 34.0217 136.019 33.728C136.218 33.4343 136.318 33.0601 136.318 32.6054Z" fill="#111111" fill-opacity="0.7"/>
<path d="M129.917 29.9339L128.913 30.2181C128.85 30.0507 128.757 29.8881 128.634 29.7302C128.514 29.5692 128.349 29.4365 128.141 29.3323C127.933 29.2281 127.666 29.176 127.34 29.176C126.895 29.176 126.524 29.2786 126.227 29.4839C125.934 29.686 125.787 29.9434 125.787 30.256C125.787 30.5339 125.888 30.7533 126.09 30.9144C126.292 31.0754 126.608 31.2096 127.037 31.317L128.117 31.5823C128.768 31.7402 129.252 31.9817 129.571 32.307C129.89 32.6291 130.05 33.0443 130.05 33.5527C130.05 33.9696 129.93 34.3422 129.69 34.6706C129.453 34.999 129.121 35.258 128.695 35.4474C128.269 35.6369 127.773 35.7316 127.208 35.7316C126.466 35.7316 125.852 35.5706 125.365 35.2485C124.879 34.9264 124.571 34.4559 124.442 33.8369L125.503 33.5717C125.604 33.9633 125.795 34.2569 126.076 34.4527C126.36 34.6485 126.731 34.7464 127.189 34.7464C127.71 34.7464 128.124 34.6359 128.43 34.4148C128.739 34.1906 128.894 33.9222 128.894 33.6096C128.894 33.357 128.806 33.1454 128.629 32.9749C128.452 32.8012 128.18 32.6717 127.814 32.5865L126.602 32.3022C125.935 32.1444 125.446 31.8996 125.133 31.5681C124.824 31.2333 124.669 30.8149 124.669 30.3128C124.669 29.9023 124.784 29.5392 125.015 29.2234C125.248 28.9076 125.566 28.6597 125.967 28.4797C126.371 28.2997 126.829 28.2097 127.34 28.2097C128.06 28.2097 128.626 28.3676 129.036 28.6834C129.45 28.9992 129.744 29.416 129.917 29.9339Z" fill="#111111" fill-opacity="0.7"/>
<path d="M120.051 35.7316C119.35 35.7316 118.745 35.5769 118.236 35.2674C117.731 34.9548 117.341 34.519 117.066 33.9601C116.795 33.398 116.659 32.7443 116.659 31.9991C116.659 31.2539 116.795 30.597 117.066 30.0286C117.341 29.4571 117.723 29.0118 118.213 28.6929C118.705 28.3708 119.28 28.2097 119.937 28.2097C120.316 28.2097 120.69 28.2729 121.06 28.3992C121.429 28.5255 121.765 28.7308 122.068 29.015C122.372 29.296 122.613 29.6686 122.793 30.1328C122.973 30.597 123.063 31.1686 123.063 31.8475V32.3212H117.455V31.3549H121.926C121.926 30.9444 121.844 30.5781 121.68 30.256C121.519 29.9339 121.288 29.6797 120.988 29.4934C120.692 29.3071 120.341 29.2139 119.937 29.2139C119.492 29.2139 119.106 29.3244 118.781 29.5455C118.459 29.7634 118.211 30.0476 118.038 30.3981C117.864 30.7486 117.777 31.1244 117.777 31.5254V32.1696C117.777 32.7191 117.872 33.1849 118.061 33.567C118.254 33.9459 118.521 34.2348 118.862 34.4338C119.203 34.6296 119.599 34.7275 120.051 34.7275C120.344 34.7275 120.61 34.6864 120.846 34.6043C121.086 34.519 121.293 34.3927 121.467 34.2254C121.641 34.0548 121.775 33.8433 121.87 33.5906L122.949 33.8938C122.836 34.2601 122.645 34.5822 122.376 34.8601C122.108 35.1348 121.776 35.3495 121.382 35.5043C120.987 35.6559 120.543 35.7316 120.051 35.7316Z" fill="#111111" fill-opacity="0.7"/>
<path d="M112.259 35.58V28.3044H113.339V29.4033H113.414C113.547 29.0433 113.787 28.7512 114.134 28.527C114.482 28.3028 114.873 28.1907 115.309 28.1907C115.391 28.1907 115.494 28.1923 115.617 28.1954C115.74 28.1986 115.833 28.2033 115.897 28.2096V29.3464C115.859 29.337 115.772 29.3228 115.636 29.3038C115.503 29.2817 115.363 29.2706 115.214 29.2706C114.861 29.2706 114.545 29.3449 114.267 29.4933C113.992 29.6385 113.774 29.8406 113.613 30.0996C113.456 30.3554 113.377 30.6475 113.377 30.9759V35.58H112.259Z" fill="#111111" fill-opacity="0.7"/>
<path d="M103.544 35.58V28.3044H104.624V29.4033H104.7C104.833 29.0433 105.073 28.7512 105.42 28.527C105.767 28.3028 106.159 28.1907 106.595 28.1907C106.677 28.1907 106.779 28.1923 106.903 28.1954C107.026 28.1986 107.119 28.2033 107.182 28.2096V29.3464C107.144 29.337 107.057 29.3228 106.922 29.3038C106.789 29.2817 106.648 29.2706 106.5 29.2706C106.146 29.2706 105.831 29.3449 105.553 29.4933C105.278 29.6385 105.06 29.8406 104.899 30.0996C104.741 30.3554 104.662 30.6475 104.662 30.9759V35.58H103.544Z" fill="#111111" fill-opacity="0.7"/>
<path d="M98.8313 35.7316C98.1302 35.7316 97.5255 35.5769 97.0171 35.2674C96.5118 34.9548 96.1218 34.519 95.8471 33.9601C95.5755 33.398 95.4398 32.7443 95.4398 31.9991C95.4398 31.2539 95.5755 30.597 95.8471 30.0286C96.1218 29.4571 96.5039 29.0118 96.9934 28.6929C97.486 28.3708 98.0607 28.2097 98.7176 28.2097C99.0965 28.2097 99.4707 28.2729 99.8402 28.3992C100.21 28.5255 100.546 28.7308 100.849 29.015C101.152 29.296 101.394 29.6686 101.574 30.1328C101.754 30.597 101.844 31.1686 101.844 31.8475V32.3212H96.2355V31.3549H100.707C100.707 30.9444 100.625 30.5781 100.461 30.256C100.3 29.9339 100.069 29.6797 99.7691 29.4934C99.4723 29.3071 99.1218 29.2139 98.7176 29.2139C98.2723 29.2139 97.8871 29.3244 97.5618 29.5455C97.2397 29.7634 96.9918 30.0476 96.8181 30.3981C96.6445 30.7486 96.5576 31.1244 96.5576 31.5254V32.1696C96.5576 32.7191 96.6524 33.1849 96.8418 33.567C97.0345 33.9459 97.3013 34.2348 97.6423 34.4338C97.9834 34.6296 98.3797 34.7275 98.8313 34.7275C99.1249 34.7275 99.3902 34.6864 99.627 34.6043C99.867 34.519 100.074 34.3927 100.248 34.2254C100.421 34.0548 100.555 33.8433 100.65 33.5906L101.73 33.8938C101.616 34.2601 101.425 34.5822 101.157 34.8601C100.889 35.1348 100.557 35.3495 100.162 35.5043C99.7675 35.6559 99.3239 35.7316 98.8313 35.7316Z" fill="#111111" fill-opacity="0.7"/>
<path d="M94.5658 28.3044L91.8754 35.5801H90.7386L88.0481 28.3044H89.2607L91.2691 34.1022H91.3449L93.3532 28.3044H94.5658Z" fill="#111111" fill-opacity="0.7"/>
<path d="M85.4512 35.5801V28.3045H86.569V35.5801H85.4512ZM86.0196 27.0919C85.8017 27.0919 85.6138 27.0177 85.4559 26.8693C85.3012 26.7209 85.2238 26.5425 85.2238 26.334C85.2238 26.1256 85.3012 25.9472 85.4559 25.7988C85.6138 25.6504 85.8017 25.5762 86.0196 25.5762C86.2375 25.5762 86.4238 25.6504 86.5785 25.7988C86.7364 25.9472 86.8154 26.1256 86.8154 26.334C86.8154 26.5425 86.7364 26.7209 86.5785 26.8693C86.4238 27.0177 86.2375 27.0919 86.0196 27.0919Z" fill="#111111" fill-opacity="0.7"/>
<path d="M83.4037 25.8792V35.58H82.2859V25.8792H83.4037Z" fill="#111111" fill-opacity="0.7"/>
<path d="M77.5728 35.7316C76.8718 35.7316 76.2671 35.5769 75.7587 35.2674C75.2534 34.9548 74.8634 34.519 74.5887 33.9601C74.3171 33.398 74.1813 32.7443 74.1813 31.9991C74.1813 31.2539 74.3171 30.597 74.5887 30.0286C74.8634 29.4571 75.2455 29.0118 75.735 28.6929C76.2276 28.3708 76.8023 28.2097 77.4591 28.2097C77.8381 28.2097 78.2123 28.2729 78.5817 28.3992C78.9512 28.5255 79.2875 28.7308 79.5907 29.015C79.8938 29.296 80.1354 29.6686 80.3154 30.1328C80.4954 30.597 80.5854 31.1686 80.5854 31.8475V32.3212H74.9771V31.3549H79.4486C79.4486 30.9444 79.3665 30.5781 79.2023 30.256C79.0412 29.9339 78.8107 29.6797 78.5107 29.4934C78.2139 29.3071 77.8633 29.2139 77.4591 29.2139C77.0139 29.2139 76.6286 29.3244 76.3034 29.5455C75.9813 29.7634 75.7334 30.0476 75.5597 30.3981C75.386 30.7486 75.2992 31.1244 75.2992 31.5254V32.1696C75.2992 32.7191 75.3939 33.1849 75.5834 33.567C75.776 33.9459 76.0429 34.2348 76.3839 34.4338C76.7249 34.6296 77.1212 34.7275 77.5728 34.7275C77.8665 34.7275 78.1318 34.6864 78.3686 34.6043C78.6086 34.519 78.8154 34.3927 78.9891 34.2254C79.1628 34.0548 79.297 33.8433 79.3917 33.5906L80.4717 33.8938C80.358 34.2601 80.167 34.5822 79.8986 34.8601C79.6301 35.1348 79.2986 35.3495 78.9038 35.5043C78.5091 35.6559 78.0654 35.7316 77.5728 35.7316Z" fill="#111111" fill-opacity="0.7"/>
<path d="M68.9851 35.7315C68.3788 35.7315 67.8436 35.5784 67.3794 35.2721C66.9152 34.9626 66.552 34.5268 66.2899 33.9647C66.0278 33.3995 65.8968 32.7316 65.8968 31.9611C65.8968 31.1969 66.0278 30.5338 66.2899 29.9717C66.552 29.4096 66.9168 28.9754 67.3841 28.6691C67.8515 28.3628 68.3915 28.2096 69.0041 28.2096C69.4778 28.2096 69.852 28.2886 70.1267 28.4465C70.4046 28.6012 70.6162 28.778 70.7614 28.977C70.9098 29.1728 71.0251 29.3338 71.1072 29.4601H71.2019V25.8792H72.3198V35.58H71.2398V34.4621H71.1072C71.0251 34.5947 70.9082 34.7621 70.7567 34.9642C70.6051 35.1631 70.3888 35.3416 70.1077 35.4994C69.8267 35.6542 69.4525 35.7315 68.9851 35.7315ZM69.1367 34.7274C69.5851 34.7274 69.9641 34.6105 70.2735 34.3768C70.583 34.14 70.8182 33.8132 70.9793 33.3963C71.1403 32.9763 71.2209 32.4916 71.2209 31.9422C71.2209 31.399 71.1419 30.9238 70.984 30.5164C70.8261 30.1059 70.5925 29.787 70.283 29.5596C69.9735 29.3291 69.5914 29.2138 69.1367 29.2138C68.663 29.2138 68.2683 29.3354 67.9525 29.5785C67.6399 29.8185 67.4046 30.1454 67.2468 30.559C67.092 30.9696 67.0147 31.4306 67.0147 31.9422C67.0147 32.46 67.0936 32.9306 67.2515 33.3537C67.4125 33.7737 67.6494 34.1084 67.962 34.3579C68.2778 34.6042 68.6694 34.7274 69.1367 34.7274Z" fill="#111111" fill-opacity="0.7"/>
<path d="M57.7733 35.7316C57.0723 35.7316 56.4675 35.5769 55.9591 35.2674C55.4539 34.9548 55.0639 34.519 54.7892 33.9601C54.5176 33.398 54.3818 32.7443 54.3818 31.9991C54.3818 31.2539 54.5176 30.597 54.7892 30.0286C55.0639 29.4571 55.446 29.0118 55.9355 28.6929C56.4281 28.3708 57.0028 28.2097 57.6596 28.2097C58.0386 28.2097 58.4128 28.2729 58.7822 28.3992C59.1517 28.5255 59.488 28.7308 59.7911 29.015C60.0943 29.296 60.3359 29.6686 60.5159 30.1328C60.6959 30.597 60.7859 31.1686 60.7859 31.8475V32.3212H55.1776V31.3549H59.649C59.649 30.9444 59.5669 30.5781 59.4027 30.256C59.2417 29.9339 59.0112 29.6797 58.7112 29.4934C58.4143 29.3071 58.0638 29.2139 57.6596 29.2139C57.2144 29.2139 56.8291 29.3244 56.5039 29.5455C56.1818 29.7634 55.9339 30.0476 55.7602 30.3981C55.5865 30.7486 55.4997 31.1244 55.4997 31.5254V32.1696C55.4997 32.7191 55.5944 33.1849 55.7839 33.567C55.9765 33.9459 56.2433 34.2348 56.5844 34.4338C56.9254 34.6296 57.3217 34.7275 57.7733 34.7275C58.067 34.7275 58.3322 34.6864 58.5691 34.6043C58.8091 34.519 59.0159 34.3927 59.1896 34.2254C59.3633 34.0548 59.4975 33.8433 59.5922 33.5906L60.6722 33.8938C60.5585 34.2601 60.3675 34.5822 60.099 34.8601C59.8306 35.1348 59.499 35.3495 59.1043 35.5043C58.7096 35.6559 58.2659 35.7316 57.7733 35.7316Z" fill="#111111" fill-opacity="0.7"/>
<path d="M44.6526 35.58L42 25.8792H43.1937L45.221 33.78H45.3157L47.3809 25.8792H48.7072L50.7724 33.78H50.8672L52.8945 25.8792H54.0881L51.4356 35.58H50.223L48.082 27.8496H48.0062L45.8652 35.58H44.6526Z" fill="#111111" fill-opacity="0.7"/>
</svg>
