<svg width="53" height="14" viewBox="0 0 53 14" fill="none" xmlns="http://www.w3.org/2000/svg">
<g id="Wordmark">
<path id="Vector" d="M46.5878 13.7858V4.03321H48.83V5.6556H48.8755C49.0517 5.09657 49.3373 4.67123 49.7323 4.37956C50.1273 4.08182 50.6346 3.93295 51.2544 3.93295C51.4003 3.93295 51.54 3.93902 51.6737 3.95117C51.8135 3.95725 51.9289 3.96637 52.0201 3.97852V6.04753C51.935 6.0293 51.7861 6.01107 51.5734 5.99284C51.3668 5.97461 51.1542 5.9655 50.9354 5.9655C50.5526 5.9655 50.2063 6.05057 49.8964 6.22071C49.5925 6.39084 49.3525 6.64301 49.1763 6.97722C49.0001 7.31142 48.912 7.72461 48.912 8.2168V13.7858H46.5878Z" fill="#111111"/>
<path id="Vector_2" d="M39.6421 13.9499C38.998 13.9499 38.4238 13.8405 37.9195 13.6217C37.4212 13.403 37.0262 13.0779 36.7346 12.6465C36.4429 12.209 36.2971 11.6682 36.2971 11.0241C36.2971 10.4711 36.4004 10.0154 36.607 9.6569C36.8136 9.29232 37.0931 9.00369 37.4455 8.79102C37.804 8.57227 38.2111 8.40821 38.6668 8.29883C39.1287 8.18338 39.6057 8.10135 40.0978 8.05274C40.6933 7.9859 41.1673 7.92817 41.5197 7.87956C41.8721 7.82487 42.1274 7.74588 42.2853 7.64258C42.4433 7.53928 42.5223 7.37826 42.5223 7.15951V7.09571C42.5223 6.80404 42.4524 6.55187 42.3127 6.3392C42.1729 6.12045 41.9724 5.95031 41.7111 5.82878C41.4498 5.70725 41.1308 5.64649 40.7541 5.64649C40.3774 5.64649 40.0462 5.70725 39.7606 5.82878C39.4811 5.95031 39.2563 6.11437 39.0861 6.32097C38.916 6.52756 38.8127 6.7615 38.7762 7.02279L36.5705 6.92253C36.6434 6.29058 36.8591 5.74675 37.2176 5.29102C37.5822 4.83529 38.0683 4.48286 38.676 4.23373C39.2836 3.97852 39.9885 3.85091 40.7905 3.85091C41.386 3.85091 41.9299 3.92383 42.4221 4.06966C42.9142 4.20942 43.3396 4.41906 43.6981 4.69857C44.0566 4.97808 44.3331 5.32444 44.5275 5.73763C44.722 6.15083 44.8192 6.62782 44.8192 7.16862V13.7858H42.5588V12.4186H42.5041C42.3583 12.7042 42.1608 12.9655 41.9116 13.2025C41.6625 13.4334 41.3526 13.6157 40.982 13.7494C40.6113 13.883 40.1647 13.9499 39.6421 13.9499ZM40.2163 12.2363C40.7146 12.2363 41.1339 12.1452 41.4741 11.9629C41.8205 11.7745 42.0818 11.5284 42.258 11.2246C42.4403 10.9147 42.5314 10.5744 42.5314 10.2038V9.11914C42.4585 9.17383 42.3461 9.22244 42.1942 9.26498C42.0484 9.30751 41.8752 9.35005 41.6747 9.39258C41.4741 9.42904 41.2615 9.4655 41.0366 9.50196C40.8179 9.53841 40.5991 9.57183 40.3804 9.60222C40.0462 9.65083 39.7393 9.72982 39.4598 9.8392C39.1864 9.94249 38.9646 10.0883 38.7945 10.2767C38.6304 10.4651 38.5484 10.7081 38.5484 11.0059C38.5484 11.2611 38.6182 11.4829 38.758 11.6712C38.8978 11.8535 39.0922 11.9933 39.3413 12.0905C39.5905 12.1877 39.8821 12.2363 40.2163 12.2363Z" fill="#111111"/>
<path id="Vector_3" d="M34.9478 0.205078V13.7858H32.6235V0.205078H34.9478Z" fill="#111111"/>
<path id="Vector_4" d="M25.6778 13.9499C25.0337 13.9499 24.4595 13.8405 23.9552 13.6217C23.4569 13.403 23.0619 13.0779 22.7703 12.6465C22.4786 12.209 22.3328 11.6682 22.3328 11.0241C22.3328 10.4711 22.4361 10.0154 22.6427 9.6569C22.8493 9.29232 23.1288 9.00369 23.4812 8.79102C23.8397 8.57227 24.2468 8.40821 24.7026 8.29883C25.1644 8.18338 25.6414 8.10135 26.1335 8.05274C26.729 7.9859 27.203 7.92817 27.5554 7.87956C27.9079 7.82487 28.1631 7.74588 28.321 7.64258C28.479 7.53928 28.558 7.37826 28.558 7.15951V7.09571C28.558 6.80404 28.4881 6.55187 28.3484 6.3392C28.2086 6.12045 28.0081 5.95031 27.7468 5.82878C27.4855 5.70725 27.1665 5.64649 26.7898 5.64649C26.4131 5.64649 26.0819 5.70725 25.7963 5.82878C25.5168 5.95031 25.292 6.11437 25.1218 6.32097C24.9517 6.52756 24.8484 6.7615 24.8119 7.02279L22.6062 6.92253C22.6791 6.29058 22.8948 5.74675 23.2533 5.29102C23.6179 4.83529 24.104 4.48286 24.7117 4.23373C25.3193 3.97852 26.0242 3.85091 26.8263 3.85091C27.4217 3.85091 27.9656 3.92383 28.4578 4.06966C28.95 4.20942 29.3753 4.41906 29.7338 4.69857C30.0923 4.97808 30.3688 5.32444 30.5632 5.73763C30.7577 6.15083 30.8549 6.62782 30.8549 7.16862V13.7858H28.5945V12.4186H28.5398C28.394 12.7042 28.1965 12.9655 27.9473 13.2025C27.6982 13.4334 27.3883 13.6157 27.0177 13.7494C26.647 13.883 26.2004 13.9499 25.6778 13.9499ZM26.252 12.2363C26.7503 12.2363 27.1696 12.1452 27.5098 11.9629C27.8562 11.7745 28.1175 11.5284 28.2937 11.2246C28.476 10.9147 28.5671 10.5744 28.5671 10.2038V9.11914C28.4942 9.17383 28.3818 9.22244 28.2299 9.26498C28.0841 9.30751 27.9109 9.35005 27.7104 9.39258C27.5098 9.42904 27.2972 9.4655 27.0723 9.50196C26.8536 9.53841 26.6348 9.57183 26.4161 9.60222C26.0819 9.65083 25.775 9.72982 25.4955 9.8392C25.2221 9.94249 25.0003 10.0883 24.8302 10.2767C24.6661 10.4651 24.5841 10.7081 24.5841 11.0059C24.5841 11.2611 24.6539 11.4829 24.7937 11.6712C24.9335 11.8535 25.1279 11.9933 25.377 12.0905C25.6262 12.1877 25.9178 12.2363 26.252 12.2363Z" fill="#111111"/>
<path id="Vector_5" d="M16.9457 14.0046C15.9978 14.0046 15.1653 13.7919 14.4483 13.3665C13.7374 12.9351 13.1844 12.3396 12.7895 11.5801C12.3945 10.8145 12.197 9.93034 12.197 8.92774C12.197 7.92514 12.3945 7.04102 12.7895 6.2754C13.1844 5.50977 13.7374 4.91125 14.4483 4.47982C15.1653 4.0484 15.9978 3.83269 16.9457 3.83269C17.5412 3.83269 18.0911 3.9208 18.5955 4.09701C19.0998 4.26715 19.5434 4.5102 19.9262 4.82618C20.3151 5.14215 20.628 5.51889 20.865 5.95639C21.102 6.38781 21.2539 6.86784 21.3207 7.39649L19.0694 7.49675C19.0269 7.23547 18.9479 6.99849 18.8324 6.78581C18.717 6.57314 18.5681 6.39085 18.3858 6.23894C18.2096 6.08703 18.003 5.96854 17.766 5.88347C17.5291 5.7984 17.2647 5.75586 16.9731 5.75586C16.4566 5.75586 16.016 5.88955 15.6514 6.15691C15.2929 6.41819 15.0195 6.78581 14.8311 7.25977C14.6428 7.73373 14.5486 8.28972 14.5486 8.92774C14.5486 9.55968 14.6428 10.1126 14.8311 10.5866C15.0195 11.0606 15.2929 11.4282 15.6514 11.6895C16.016 11.9507 16.4566 12.0814 16.9731 12.0814C17.2708 12.0814 17.5351 12.0419 17.766 11.9629C18.003 11.8778 18.2066 11.7593 18.3767 11.6074C18.5529 11.4494 18.6957 11.2611 18.8051 11.0423C18.9205 10.8236 19.0056 10.5805 19.0603 10.3132L21.3207 10.4134C21.266 10.9421 21.1202 11.4251 20.8832 11.8626C20.6462 12.2941 20.3333 12.6708 19.9444 12.9928C19.5616 13.3149 19.115 13.564 18.6046 13.7402C18.0942 13.9165 17.5412 14.0046 16.9457 14.0046Z" fill="#111111"/>
<path id="Vector_6" d="M6.01695 14.0046C4.91712 14.0046 3.96617 13.8253 3.16408 13.4668C2.36808 13.1022 1.75436 12.5796 1.32294 11.8991C0.891513 11.2185 0.672763 10.4043 0.666687 9.45638H3.03648C3.04863 9.98503 3.17624 10.4377 3.41929 10.8145C3.66842 11.1851 4.01478 11.4707 4.45835 11.6712C4.90193 11.8657 5.4245 11.9629 6.02606 11.9629C6.59117 11.9629 7.08032 11.8839 7.49351 11.7259C7.91278 11.5619 8.23787 11.334 8.46877 11.0423C8.70575 10.7446 8.82424 10.3982 8.82424 10.0033C8.82424 9.67513 8.73613 9.39258 8.55992 9.1556C8.3837 8.91862 8.11026 8.71506 7.7396 8.54492C7.36894 8.36871 6.89499 8.21376 6.31773 8.08008L4.84117 7.73373C3.53474 7.42991 2.55948 6.97722 1.91539 6.37565C1.27736 5.76801 0.958354 4.9872 0.958354 4.03321C0.958354 3.21897 1.16799 2.51107 1.58726 1.90951C2.00653 1.30795 2.58986 0.840063 3.33726 0.505862C4.09073 0.165584 4.95966 -0.00455475 5.94403 -0.00455475C6.94664 -0.00455475 7.81556 0.168622 8.5508 0.514976C9.28605 0.861331 9.85723 1.35048 10.2643 1.98242C10.6775 2.61437 10.8963 3.3648 10.9206 4.23373H8.6146C8.56599 3.54709 8.30167 3.00933 7.82164 2.62045C7.3416 2.23156 6.70966 2.03711 5.9258 2.03711C5.42754 2.03711 4.98396 2.11914 4.59507 2.28321C4.21226 2.44119 3.91148 2.65994 3.69273 2.93946C3.48006 3.21897 3.37372 3.54102 3.37372 3.9056C3.37372 4.22765 3.46486 4.50413 3.64716 4.73503C3.82945 4.95985 4.09985 5.1543 4.45835 5.31836C4.82294 5.47635 5.27563 5.61914 5.81643 5.74675L7.16539 6.06576C7.82771 6.21767 8.41105 6.40603 8.91539 6.63086C9.41973 6.84961 9.84203 7.11393 10.1823 7.42383C10.5287 7.73373 10.79 8.09223 10.9662 8.49935C11.1424 8.90647 11.2305 9.36827 11.2305 9.88477C11.2305 10.7172 11.0209 11.4434 10.6016 12.0632C10.1823 12.6829 9.58075 13.163 8.7969 13.5033C8.01912 13.8375 7.09247 14.0046 6.01695 14.0046Z" fill="#111111"/>
</g>
</svg>
