<svg xmlns="http://www.w3.org/2000/svg" width="22" height="24" viewBox="0 0 22 24" fill="none">
    <path fill-rule="evenodd" clip-rule="evenodd" d="M0 9V18.6H3.05556C3.37655 18.6 3.69442 18.6621 3.99102 18.7827C4.28755 18.9033 4.55707 19.0801 4.784 19.303C5.01101 19.5258 5.19109 19.7904 5.31395 20.0816C5.43674 20.3728 5.5 20.6848 5.5 21V24H12.8333L22 15V5.4H18.9444C18.6234 5.4 18.3056 5.33793 18.009 5.21732C17.7124 5.09671 17.4429 4.91992 17.216 4.69706C16.989 4.4742 16.8089 4.20961 16.686 3.91844C16.5632 3.62726 16.5 3.31518 16.5 3V0H9.16667L0 9ZM10.3889 18H6.11111V11.4L11.6111 6H15.8889V12.6L10.3889 18Z" fill="#111111"/>
  </svg>