<svg width="114" height="20" viewBox="0 0 114 20" fill="none" xmlns="http://www.w3.org/2000/svg">
<path d="M113.485 5.3979V7.52859H106.037V5.3979H113.485ZM108.034 2.13086H110.689V15.0304C110.689 15.5453 110.766 15.9329 110.92 16.1934C111.074 16.4479 111.272 16.6225 111.515 16.7172C111.763 16.8059 112.032 16.8503 112.322 16.8503C112.536 16.8503 112.722 16.8355 112.882 16.8059C113.042 16.7763 113.166 16.7527 113.255 16.7349L113.734 18.9277C113.58 18.9869 113.361 19.0461 113.077 19.1053C112.793 19.1704 112.438 19.2059 112.012 19.2118C111.313 19.2237 110.662 19.0994 110.059 18.839C109.455 18.5785 108.967 18.1761 108.594 17.6316C108.221 17.0871 108.034 16.4035 108.034 15.5808V2.13086Z" fill="#111111"/>
<path d="M104.381 5.39773V7.52841H96.6753V5.39773H104.381ZM98.7882 19.0341V3.81747C98.7882 2.9652 98.9746 2.25793 99.3475 1.69567C99.7204 1.12749 100.215 0.704309 100.83 0.426137C101.446 0.142046 102.114 0 102.836 0C103.369 0 103.825 0.0443896 104.204 0.133169C104.582 0.216028 104.864 0.292969 105.047 0.363992L104.426 2.51243C104.301 2.47692 104.142 2.43549 103.946 2.38814C103.751 2.33487 103.514 2.30824 103.236 2.30824C102.591 2.30824 102.129 2.46804 101.851 2.78764C101.579 3.10725 101.443 3.56889 101.443 4.17259V19.0341H98.7882Z" fill="#111111"/>
<path d="M88.572 19.3093C87.2936 19.3093 86.1779 19.0164 85.2251 18.4304C84.2722 17.8445 83.5324 17.0248 83.0056 15.9713C82.4788 14.9178 82.2155 13.6867 82.2155 12.2781C82.2155 10.8636 82.4788 9.62658 83.0056 8.56716C83.5324 7.50774 84.2722 6.68506 85.2251 6.09912C86.1779 5.51318 87.2936 5.22021 88.572 5.22021C89.8504 5.22021 90.9661 5.51318 91.919 6.09912C92.8718 6.68506 93.6117 7.50774 94.1384 8.56716C94.6652 9.62658 94.9285 10.8636 94.9285 12.2781C94.9285 13.6867 94.6652 14.9178 94.1384 15.9713C93.6117 17.0248 92.8718 17.8445 91.919 18.4304C90.9661 19.0164 89.8504 19.3093 88.572 19.3093ZM88.5809 17.081C89.4095 17.081 90.096 16.862 90.6405 16.4241C91.185 15.9861 91.5875 15.4031 91.8479 14.6751C92.1143 13.9471 92.2474 13.1452 92.2474 12.2692C92.2474 11.3992 92.1143 10.6002 91.8479 9.8722C91.5875 9.1383 91.185 8.5494 90.6405 8.10551C90.096 7.66162 89.4095 7.43967 88.5809 7.43967C87.7464 7.43967 87.0539 7.66162 86.5035 8.10551C85.959 8.5494 85.5535 9.1383 85.2872 9.8722C85.0268 10.6002 84.8966 11.3992 84.8966 12.2692C84.8966 13.1452 85.0268 13.9471 85.2872 14.6751C85.5535 15.4031 85.959 15.9861 86.5035 16.4241C87.0539 16.862 87.7464 17.081 88.5809 17.081Z" fill="#111111"/>
<path d="M79.6431 8.72696L77.2372 9.1531C77.1366 8.84533 76.9768 8.55236 76.7578 8.27419C76.5448 7.99602 76.2547 7.76815 75.8878 7.5906C75.5208 7.41304 75.0622 7.32426 74.5117 7.32426C73.7601 7.32426 73.1327 7.49294 72.6296 7.8303C72.1265 8.16174 71.875 8.59083 71.875 9.11759C71.875 9.57332 72.0437 9.94027 72.381 10.2184C72.7184 10.4966 73.2629 10.7245 74.0146 10.902L76.1808 11.3992C77.4355 11.6892 78.3706 12.1361 78.9862 12.7397C79.6017 13.3434 79.9095 14.1276 79.9095 15.0924C79.9095 15.9091 79.6727 16.6371 79.1992 17.2763C78.7317 17.9096 78.0777 18.4068 77.2372 18.7678C76.4027 19.1288 75.435 19.3093 74.3342 19.3093C72.8072 19.3093 71.5613 18.9838 70.5966 18.3328C69.6319 17.6758 69.04 16.7437 68.821 15.5363L71.3867 15.1456C71.5465 15.8144 71.875 16.3205 72.3722 16.6638C72.8693 17.0011 73.5174 17.1698 74.3164 17.1698C75.1864 17.1698 75.8819 16.9893 76.4027 16.6282C76.9235 16.2613 77.184 15.8144 77.184 15.2877C77.184 14.8615 77.0242 14.5035 76.7046 14.2135C76.3909 13.9235 75.9085 13.7045 75.2575 13.5565L72.9492 13.0505C71.6767 12.7605 70.7357 12.2988 70.1261 11.6655C69.5224 11.0322 69.2205 10.2303 69.2205 9.25963C69.2205 8.45471 69.4454 7.7504 69.8952 7.14671C70.3451 6.54301 70.9665 6.07249 71.7596 5.73513C72.5527 5.39185 73.4612 5.22021 74.4851 5.22021C75.9588 5.22021 77.1188 5.53982 77.9652 6.17902C78.8116 6.81231 79.3709 7.66162 79.6431 8.72696Z" fill="#111111"/>
<path d="M59.1597 19.336C58.2956 19.336 57.5144 19.1762 56.816 18.8566C56.1176 18.5311 55.5642 18.0605 55.1558 17.445C54.7533 16.8295 54.5521 16.0749 54.5521 15.1812C54.5521 14.4117 54.7001 13.7785 54.996 13.2813C55.2919 12.7841 55.6914 12.3906 56.1945 12.1005C56.6976 11.8105 57.2599 11.5915 57.8813 11.4436C58.5028 11.2956 59.136 11.1832 59.7812 11.1062C60.5979 11.0115 61.2608 10.9346 61.7698 10.8754C62.2788 10.8103 62.6487 10.7067 62.8795 10.5647C63.1103 10.4226 63.2258 10.1918 63.2258 9.8722V9.81006C63.2258 9.03473 63.0068 8.43399 62.5688 8.00786C62.1367 7.58172 61.4916 7.36865 60.6334 7.36865C59.7397 7.36865 59.0354 7.56692 58.5205 7.96347C58.0115 8.35409 57.6594 8.78911 57.464 9.26851L54.9694 8.70033C55.2653 7.87173 55.6974 7.20293 56.2655 6.69394C56.8396 6.17902 57.4996 5.80615 58.2453 5.57533C58.991 5.33859 59.7752 5.22021 60.5979 5.22021C61.1424 5.22021 61.7195 5.28532 62.3291 5.41553C62.9446 5.53982 63.5187 5.77064 64.0514 6.108C64.59 6.44536 65.0309 6.92772 65.3742 7.55509C65.7175 8.17654 65.8891 8.98442 65.8891 9.97874V19.0341H63.2968V17.1698H63.1903C63.0186 17.5131 62.7612 17.8504 62.4179 18.1819C62.0746 18.5133 61.6337 18.7885 61.0951 19.0075C60.5565 19.2265 59.9114 19.336 59.1597 19.336ZM59.7368 17.2053C60.4707 17.2053 61.098 17.0603 61.6189 16.7703C62.1456 16.4803 62.5451 16.1015 62.8174 15.6339C63.0956 15.1604 63.2346 14.6544 63.2346 14.1158V12.358C63.1399 12.4527 62.9565 12.5415 62.6842 12.6243C62.4179 12.7013 62.1131 12.7693 61.7698 12.8285C61.4265 12.8818 61.0921 12.9321 60.7666 12.9794C60.4411 13.0209 60.1688 13.0564 59.9498 13.086C59.4349 13.1511 58.9644 13.2606 58.5383 13.4145C58.118 13.5683 57.7807 13.7903 57.5262 14.0803C57.2776 14.3644 57.1533 14.7432 57.1533 15.2167C57.1533 15.8736 57.396 16.3708 57.8813 16.7081C58.3666 17.0396 58.9851 17.2053 59.7368 17.2053Z" fill="#111111"/>
<path d="M45.7187 19.0342V5.39779H48.2844V7.56399H48.4264C48.675 6.83009 49.113 6.25303 49.7403 5.83281C50.3736 5.40667 51.0898 5.1936 51.8888 5.1936C52.0545 5.1936 52.2498 5.19952 52.4747 5.21136C52.7055 5.2232 52.886 5.23799 53.0163 5.25575V7.79481C52.9097 7.76522 52.7203 7.73267 52.4481 7.69715C52.1758 7.65572 51.9036 7.63501 51.6313 7.63501C51.0039 7.63501 50.4446 7.76818 49.9534 8.03451C49.4681 8.29493 49.0834 8.65892 48.7993 9.12649C48.5152 9.58813 48.3731 10.1149 48.3731 10.7067V19.0342H45.7187Z" fill="#111111"/>
<path d="M36.3992 19.3093C35.1207 19.3093 34.0051 19.0164 33.0522 18.4304C32.0993 17.8445 31.3595 17.0248 30.8327 15.9713C30.306 14.9178 30.0426 13.6867 30.0426 12.2781C30.0426 10.8636 30.306 9.62658 30.8327 8.56716C31.3595 7.50774 32.0993 6.68506 33.0522 6.09912C34.0051 5.51318 35.1207 5.22021 36.3992 5.22021C37.6776 5.22021 38.7932 5.51318 39.7461 6.09912C40.699 6.68506 41.4388 7.50774 41.9656 8.56716C42.4923 9.62658 42.7557 10.8636 42.7557 12.2781C42.7557 13.6867 42.4923 14.9178 41.9656 15.9713C41.4388 17.0248 40.699 17.8445 39.7461 18.4304C38.7932 19.0164 37.6776 19.3093 36.3992 19.3093ZM36.408 17.081C37.2366 17.081 37.9232 16.862 38.4677 16.4241C39.0122 15.9861 39.4147 15.4031 39.6751 14.6751C39.9414 13.9471 40.0746 13.1452 40.0746 12.2692C40.0746 11.3992 39.9414 10.6002 39.6751 9.8722C39.4147 9.1383 39.0122 8.5494 38.4677 8.10551C37.9232 7.66162 37.2366 7.43967 36.408 7.43967C35.5735 7.43967 34.881 7.66162 34.3306 8.10551C33.7861 8.5494 33.3807 9.1383 33.1143 9.8722C32.8539 10.6002 32.7237 11.3992 32.7237 12.2692C32.7237 13.1452 32.8539 13.9471 33.1143 14.6751C33.3807 15.4031 33.7861 15.9861 34.3306 16.4241C34.881 16.862 35.5735 17.081 36.408 17.081Z" fill="#111111"/>
<path d="M28.6244 5.39771L23.6794 19.0341H20.8385L15.8847 5.39771H18.7345L22.188 15.8913H22.33L25.7746 5.39771H28.6244Z" fill="#111111"/>
<path d="M2.91193 19.0341H0L6.54297 0.852295H9.71236L16.2553 19.0341H13.3434L8.20313 4.15485H8.06108L2.91193 19.0341ZM3.40021 11.9141H12.8462V14.2223H3.40021V11.9141Z" fill="#111111"/>
</svg>
